<svg width="123" height="192" viewBox="0 0 123 192" fill="none" xmlns="http://www.w3.org/2000/svg"><mask id="a" style="mask-type:alpha" maskUnits="userSpaceOnUse" x="0" y="0" width="123" height="173"><path d="M67 0h55.5l-66 172.5H.5L67 0Z" fill="#D9D9D9"/></mask><g mask="url(#a)" fill="#D46712"><path d="m229.684-428.28 3.738 1.423-320.183 841.12-3.739-1.423zm7.477 2.847 3.738 1.423-320.183 841.12-3.739-1.423zm7.476 2.846 3.738 1.423-320.183 841.12-3.739-1.423zm7.477 2.846 3.738 1.423-320.183 841.12-3.739-1.423zm7.476 2.846 3.738 1.423-320.183 841.12-3.739-1.423zm7.477 2.846 3.738 1.423-320.183 841.12-3.739-1.423zm7.477 2.846 3.738 1.423L-41.9 431.34l-3.739-1.423z"/></g></svg>