<svg width="323" height="303" viewBox="0 0 323 303" fill="none" xmlns="http://www.w3.org/2000/svg"><mask id="a" style="mask-type:alpha" maskUnits="userSpaceOnUse" x="0" y="77" width="323" height="227"><path d="m87 77.5 235 2.07-84.5 223.93H0l87-226Z" fill="#D9D9D9"/></mask><g mask="url(#a)" fill="#D46712"><path d="m284.658-443.214 3.738 1.423-320.158 841.13-3.739-1.424zm104.674 39.842 3.738 1.423L72.912 439.18l-3.739-1.424zm-52.337-19.921 3.738 1.423L20.575 419.26l-3.739-1.424zm104.674 39.842 3.738 1.423-320.158 841.13-3.739-1.424zm-149.534-56.917 3.738 1.423-320.158 841.13-3.739-1.424zm104.674 39.842 3.738 1.423L80.39 442.027l-3.739-1.424zm-52.337-19.921 3.738 1.423-320.158 841.13-3.739-1.424zm104.674 39.842 3.738 1.423-320.158 841.13-3.739-1.424zm-149.534-56.917 3.738 1.423-320.158 841.13-3.739-1.424zm104.673 39.842 3.738 1.423-320.158 841.13-3.739-1.424zm-52.337-19.921 3.738 1.423-320.158 841.13-3.739-1.424zm104.675 39.842 3.738 1.423-320.158 841.13-3.739-1.424zm-149.535-56.917 3.738 1.423-320.158 841.13-3.739-1.424zm104.674 39.842 3.738 1.423-320.158 841.13-3.739-1.424zm-52.337-19.921 3.738 1.423-320.158 841.13-3.739-1.424zm104.674 39.842 3.738 1.423L147.68 467.64l-3.739-1.424zM314.565-431.83l3.738 1.423-320.158 841.13-3.739-1.424zm104.674 39.842 3.738 1.423-320.158 841.13-3.739-1.424zm-52.337-19.921 3.738 1.423-320.158 841.13-3.739-1.424zm104.674 39.841 3.738 1.423-320.158 841.13-3.739-1.424zm-149.534-56.916 3.738 1.423L5.622 413.569l-3.739-1.424zm104.674 39.841 3.738 1.423-320.158 841.13-3.739-1.424zm-52.337-19.921 3.738 1.423L57.96 433.489l-3.739-1.424zm104.674 39.842 3.738 1.423-320.158 841.13-3.739-1.424zm-149.534-56.917 3.738 1.423L13.1 416.414l-3.74-1.424zm104.673 39.842 3.738 1.423-320.158 841.13-3.739-1.424zm-52.337-19.921 3.738 1.423-320.158 841.13-3.739-1.424zm104.674 39.842 3.738 1.423-320.158 841.13-3.739-1.424z"/></g></svg>