<svg width="391" height="484" viewBox="0 0 391 484" fill="none" xmlns="http://www.w3.org/2000/svg"><mask id="a" style="mask-type:alpha" maskUnits="userSpaceOnUse" x="0" y="-1" width="391" height="407"><path d="M154.5-.5h235.601L236 405.251H0L154.5-.5Z" fill="#D9D9D9"/></mask><g mask="url(#a)" fill="#D46712"><path d="m320.158-435.879 3.738 1.423L3.738 406.674l-3.739-1.424zm104.674 39.842 3.738 1.423-320.158 841.13-3.739-1.424zm-52.337-19.921 3.738 1.423-320.158 841.13-3.739-1.424zm104.674 39.842 3.738 1.423-320.158 841.13-3.739-1.424zm-149.534-56.917 3.738 1.423L11.215 409.52l-3.739-1.424zm104.674 39.842 3.738 1.423-320.158 841.13-3.739-1.424zm-52.337-19.921 3.738 1.423L63.552 429.44l-3.739-1.424zm104.674 39.841 3.738 1.423-320.158 841.13-3.739-1.424zm-149.534-56.917 3.738 1.423-320.158 841.13-3.739-1.424zm104.673 39.842 3.738 1.423-320.158 841.13-3.739-1.424zm-52.337-19.92 3.738 1.423-320.158 841.13-3.739-1.424zm104.675 39.841 3.738 1.423-320.158 841.13-3.739-1.424zm-149.535-56.917 3.738 1.423L26.168 415.21l-3.739-1.424zM447.262-387.5l3.738 1.423-320.158 841.13-3.739-1.424zm-52.337-19.921 3.738 1.423-320.158 841.13-3.739-1.424zm104.674 39.842 3.738 1.423-320.158 841.13-3.739-1.424zm-149.534-56.917 3.738 1.423-320.158 841.13-3.739-1.424zm104.674 39.842 3.738 1.423-320.158 841.13-3.739-1.424zm-52.337-19.921 3.738 1.423-320.158 841.13-3.739-1.424zm104.674 39.842 3.738 1.423-320.158 841.13-3.739-1.424zM357.542-421.65l3.738 1.423-320.158 841.13-3.739-1.424zm104.674 39.842 3.738 1.423-320.158 841.13-3.739-1.424zm-52.337-19.921 3.738 1.423L93.46 440.824l-3.74-1.424zm104.673 39.842 3.738 1.423-320.158 841.13-3.739-1.424zm-149.533-56.917 3.738 1.423L48.6 423.749l-3.739-1.424zm104.673 39.842 3.738 1.423-320.158 841.13-3.739-1.424zm-52.337-19.921 3.738 1.423-320.158 841.13-3.739-1.424zm104.674 39.842 3.738 1.423-320.158 841.13-3.739-1.424z"/></g></svg>