<svg width="195" height="40" viewBox="0 0 195 40" fill="none" xmlns="http://www.w3.org/2000/svg"><g clip-path="url(#a)"><path d="M183.686 23.612h-30.822l-.227.534-2.717 6.397-.518 1.22h30.752c1.896 0 3.186 1.95 2.437 3.713l-1.55 3.647h-44.176l6.331-14.9c2.082-4.898 6.87-8.074 12.165-8.074h26.033l.227-.534 2.668-6.28.518-1.22H150.04l3.077-7.238h34.822c4.425 0 7.423 4.547 5.68 8.648l-4.384 10.319a6.175 6.175 0 0 1-5.549 3.768Z" stroke="#fff" stroke-width="2"/><path fill-rule="evenodd" clip-rule="evenodd" d="M8.592 1.087A5.348 5.348 0 0 0 3.68 4.3L.216 12.391c-.75 1.753.544 3.699 2.46 3.699h11.282a1.34 1.34 0 0 0 1.23-.808l1.12-2.61H4.435L7.609 5.27l-1.723-.81H18.95a1.34 1.34 0 0 0 1.23-.808l1.1-2.564-12.69-.002Zm29.105 11.77a5.34 5.34 0 0 1-4.912 3.233H20.861c-1.915 0-3.207-1.948-2.455-3.702l3.465-8.074a5.34 5.34 0 0 1 4.909-3.227h11.925c1.915 0 3.207 1.949 2.454 3.702l-3.462 8.068Zm-3.901-.993L36.97 4.46H24.15l1.64.81-3.176 7.401h9.953c.535 0 1.018-.317 1.228-.807ZM48.15 38.417h-2.534l4.996-11.63h-5.523l1.46-3.372h15.338l-1.014 2.389c-.242.57-.932.984-1.607.984h-4.364L50.612 36.8a2.675 2.675 0 0 1-2.462 1.617Zm50.197-4.171h-1.35l-3.67-.006-1.822 4.176h-4.214l6.457-15.001h4.203l-3.042 7.082 9.985-6.847a1.34 1.34 0 0 1 .759-.235h6.32l-11.187 7.732 5.048 7.27h-4.617l-2.87-4.17v-.001ZM90.28 23.415h-4.323L79.51 38.417h3.147c.676 0 1.398-.446 1.641-1.017l3.76-8.792 2.222-5.193ZM77.64 38.417h-4.502l-1.857-3.419h-7.968l-.775 1.805a2.673 2.673 0 0 1-2.458 1.614h-2.57l6.443-15.002H78.28c1.917 0 3.21 1.948 2.458 3.701l-2.777 6.468a2.343 2.343 0 0 1-2.155 1.415l1.834 3.418h-.001Zm1.408-7.432-2.385-4.198-11.81.01 1.634.787-1.742 4.078h8.952c.537 0 1.02-.318 1.23-.809l1.736-4.065 2.385 4.197Zm35.794-1.34h9.688l-.912 2.118a1.336 1.336 0 0 1-1.227.805h-8.81l-1.05 2.43h11.834l-1.113 2.61c-.209.49-.692.81-1.228.81h-13.25a1.33 1.33 0 0 1-1.227-1.852l4.946-11.537a2.67 2.67 0 0 1 2.455-1.614h14.39l-1.098 2.564c-.21.49-.694.807-1.228.807h-12.955l1.67.795-.885 2.065ZM44.574 12.67l4.924-11.58H46.93a2.67 2.67 0 0 0-2.456 1.612l-4.165 9.683c-.754 1.754.539 3.704 2.456 3.704H53.7a5.344 5.344 0 0 0 4.919-3.239l5.02-11.76-2.54-.004a2.67 2.67 0 0 0-2.463 1.618l-3.913 9.153a1.336 1.336 0 0 1-1.232.813l-8.916-.002Zm44.076 3.42h-2.535l4.997-11.63h-5.523l1.46-3.372h15.338l-1.014 2.389c-.243.57-.933.984-1.607.984H95.4l-4.29 10.013a2.676 2.676 0 0 1-2.46 1.617Zm46.617-3.418 1.833 3.418h-4.502l-1.857-3.418h-7.968l-.775 1.804a2.672 2.672 0 0 1-2.458 1.614h-2.569l6.442-15.002h14.327c1.918 0 3.212 1.948 2.459 3.701l-2.777 6.468a2.342 2.342 0 0 1-2.155 1.415Zm.857-8.211 2.385 4.198-2.386-4.198-1.735 4.065c-.21.491-.694.81-1.23.81h-8.952l1.741-4.078-1.635-.787 11.812-.01Zm-20.16 2.858h-9.711l.888-2.065-1.674-.794h12.985a1.34 1.34 0 0 0 1.231-.807l1.101-2.565H106.36c-1.072 0-2.04.636-2.461 1.615L98.941 14.24a1.33 1.33 0 0 0 1.23 1.85h13.281c.537 0 1.021-.318 1.231-.809l1.115-2.609h-11.861l1.052-2.43h8.831a1.34 1.34 0 0 0 1.23-.805l.914-2.118Zm-50.853 7.157a2.676 2.676 0 0 1-2.46 1.615h-2.57l6.445-15 3.22-.003c.496 0 .952.272 1.184.708l5.142 9.667 3.78-8.759a2.675 2.675 0 0 1 2.455-1.61l2.61-.003-6.105 14.193c-.21.489-.694.807-1.23.807h-2.734c-.495 0-.95-.272-1.181-.707l-4.954-9.29-3.603 8.382h.001ZM35.187 34.999l1.03-2.399H27.21c-1.915 0-3.209-1.943-2.46-3.696l.4-.936.559-1.312a5.347 5.347 0 0 1 4.922-3.241h13.735l-1.096 2.564c-.21.49-.694.809-1.23.809H27.85l1.68.81-.66 1.545h8.996c1.918 0 3.212 1.948 2.46 3.7l-1.008 2.346a5.347 5.347 0 0 1-4.917 3.228H20.664l1.13-2.614a1.337 1.337 0 0 1 1.228-.804h12.165Z" fill="#1E202F"/></g><defs><clipPath id="a"><path fill="#fff" d="M0 0h195v40H0z"/></clipPath></defs></svg>